<svg width="327" height="294" viewBox="0 0 327 294" fill="none" xmlns="http://www.w3.org/2000/svg">
<path d="M316.983 293.667H0.257674C0.223835 293.667 0.190329 293.66 0.159066 293.646C0.127804 293.633 0.0993981 293.613 0.0754708 293.589C0.0515436 293.564 0.0325636 293.535 0.0196142 293.502C0.00666493 293.47 0 293.435 0 293.4C0 293.365 0.00666493 293.331 0.0196142 293.299C0.0325636 293.266 0.0515436 293.237 0.0754708 293.212C0.0993981 293.187 0.127804 293.168 0.159066 293.154C0.190329 293.141 0.223835 293.134 0.257674 293.134H316.983C317.051 293.134 317.116 293.162 317.165 293.212C317.213 293.262 317.24 293.33 317.24 293.4C317.24 293.471 317.213 293.539 317.165 293.589C317.116 293.639 317.051 293.667 316.983 293.667H316.983Z" fill="#292A2E"/>
<g opacity="0.65">
<path d="M316.983 293.667H0.257674C0.223835 293.667 0.190329 293.66 0.159066 293.646C0.127804 293.633 0.0993981 293.613 0.0754708 293.589C0.0515436 293.564 0.0325636 293.535 0.0196142 293.502C0.00666493 293.47 0 293.435 0 293.4C0 293.365 0.00666493 293.331 0.0196142 293.299C0.0325636 293.266 0.0515436 293.237 0.0754708 293.212C0.0993981 293.187 0.127804 293.168 0.159066 293.154C0.190329 293.141 0.223835 293.134 0.257674 293.134H316.983C317.051 293.134 317.116 293.162 317.165 293.212C317.213 293.262 317.24 293.33 317.24 293.4C317.24 293.471 317.213 293.539 317.165 293.589C317.116 293.639 317.051 293.667 316.983 293.667H316.983Z" fill="#292A2E"/>
</g>
<path d="M22.3082 293.198L21.5853 293.055L32.8846 177.012L33.6076 177.156L22.3082 293.198Z" fill="#494949"/>
<path d="M64.382 293.198L63.659 293.055L74.9583 177.012L75.6809 177.156L64.382 293.198Z" fill="#494949"/>
<path d="M157.383 293.198L158.106 293.055L146.807 177.012L146.084 177.156L157.383 293.198Z" fill="#494949"/>
<path d="M115.31 293.198L116.032 293.055L104.733 177.012L104.01 177.156L115.31 293.198Z" fill="#494949"/>
<path d="M100.325 125.942L99.5948 126.043L106.196 177.136L106.925 177.035L100.325 125.942Z" fill="#494949"/>
<path d="M24.5595 125.941L23.8298 126.042L30.4306 177.135L31.1603 177.034L24.5595 125.941Z" fill="#494949"/>
<path d="M106.862 173.343H32.7555C30.7561 173.343 29.1352 175.018 29.1352 177.084V177.084C29.1352 179.151 30.7561 180.826 32.7555 180.826H106.862C108.862 180.826 110.483 179.151 110.483 177.084V177.084C110.483 175.018 108.862 173.343 106.862 173.343Z" fill="#292A2E"/>
<path opacity="0.8" d="M106.862 173.343H32.7555C30.7561 173.343 29.1352 175.018 29.1352 177.084V177.084C29.1352 179.151 30.7561 180.826 32.7555 180.826H106.862C108.862 180.826 110.483 179.151 110.483 177.084V177.084C110.483 175.018 108.862 173.343 106.862 173.343Z" fill="white"/>
<path d="M106.861 181.206H32.7555C31.7043 181.196 30.6995 180.757 29.9598 179.985C29.22 179.213 28.805 178.171 28.805 177.084C28.805 175.998 29.22 174.955 29.9598 174.183C30.6995 173.411 31.7043 172.973 32.7555 172.962H106.861C107.912 172.973 108.917 173.411 109.657 174.183C110.396 174.955 110.811 175.998 110.811 177.084C110.811 178.171 110.396 179.213 109.657 179.985C108.917 180.757 107.912 181.196 106.861 181.206ZM32.7555 173.723C31.8989 173.732 31.0804 174.091 30.4779 174.72C29.8754 175.349 29.5375 176.199 29.5375 177.084C29.5375 177.97 29.8754 178.819 30.4779 179.448C31.0804 180.078 31.8989 180.436 32.7555 180.446H106.861C107.717 180.436 108.536 180.078 109.138 179.448C109.741 178.819 110.079 177.97 110.079 177.084C110.079 176.199 109.741 175.349 109.138 174.72C108.536 174.091 107.717 173.732 106.861 173.723H32.7555Z" fill="#292A2E"/>
<path d="M147.536 173.343H73.4292C71.4298 173.343 69.8089 175.018 69.8089 177.084V177.084C69.8089 179.151 71.4298 180.826 73.4292 180.826H147.536C149.536 180.826 151.156 179.151 151.156 177.084V177.084C151.156 175.018 149.536 173.343 147.536 173.343Z" fill="white"/>
<path d="M147.536 181.206H73.4296C72.9026 181.212 72.3798 181.109 71.8914 180.904C71.403 180.699 70.9588 180.396 70.5843 180.013C70.2099 179.63 69.9126 179.174 69.7098 178.671C69.5069 178.168 69.4025 177.629 69.4025 177.084C69.4025 176.54 69.5069 176 69.7098 175.498C69.9126 174.995 70.2099 174.539 70.5843 174.155C70.9588 173.772 71.403 173.469 71.8914 173.264C72.3798 173.06 72.9026 172.957 73.4296 172.962H147.536C148.063 172.957 148.586 173.06 149.075 173.264C149.563 173.469 150.007 173.772 150.382 174.155C150.756 174.539 151.053 174.995 151.256 175.498C151.459 176 151.564 176.54 151.564 177.084C151.564 177.629 151.459 178.168 151.256 178.671C151.053 179.174 150.756 179.63 150.382 180.013C150.007 180.396 149.563 180.699 149.075 180.904C148.586 181.109 148.063 181.212 147.536 181.206ZM73.4296 173.723C72.9995 173.718 72.5729 173.802 72.1743 173.968C71.7757 174.135 71.413 174.382 71.1073 174.695C70.8016 175.007 70.5589 175.379 70.3933 175.79C70.2277 176.2 70.1424 176.64 70.1424 177.084C70.1424 177.529 70.2277 177.969 70.3933 178.379C70.5589 178.789 70.8016 179.161 71.1073 179.474C71.413 179.786 71.7757 180.033 72.1743 180.2C72.5729 180.367 72.9995 180.45 73.4296 180.446H147.536C147.966 180.45 148.393 180.367 148.792 180.2C149.19 180.033 149.553 179.786 149.859 179.474C150.164 179.161 150.407 178.789 150.573 178.379C150.738 177.969 150.824 177.529 150.824 177.084C150.824 176.64 150.738 176.2 150.573 175.79C150.407 175.379 150.164 175.007 149.859 174.695C149.553 174.382 149.19 174.135 148.792 173.968C148.393 173.802 147.966 173.718 147.536 173.723H73.4296Z" fill="#292A2E"/>
<path d="M96.265 125.991H24.3936C23.2186 125.991 22.0837 125.549 21.2008 124.748C20.318 123.947 19.7474 122.841 19.5957 121.636L14.8416 83.9056C14.7527 83.2004 14.8104 82.4836 15.0109 81.8032C15.2113 81.1228 15.5499 80.4944 16.0041 79.96C16.4582 79.4256 17.0174 78.9975 17.6444 78.7042C18.2714 78.4109 18.9517 78.2593 19.6399 78.2593H91.5109C92.6859 78.2593 93.8208 78.7012 94.7037 79.5026C95.5865 80.3039 96.1571 81.4099 96.3088 82.6141L101.063 120.345C101.152 121.05 101.094 121.767 100.894 122.447C100.693 123.127 100.354 123.756 99.9004 124.29C99.4463 124.825 98.8872 125.253 98.2603 125.546C97.6334 125.839 96.9531 125.991 96.265 125.991Z" fill="#292A2E"/>
<path opacity="0.8" d="M96.265 125.991H24.3936C23.2186 125.991 22.0837 125.549 21.2008 124.748C20.318 123.947 19.7474 122.841 19.5957 121.636L14.8416 83.9056C14.7527 83.2004 14.8104 82.4836 15.0109 81.8032C15.2113 81.1228 15.5499 80.4944 16.0041 79.96C16.4582 79.4256 17.0174 78.9975 17.6444 78.7042C18.2714 78.4109 18.9517 78.2593 19.6399 78.2593H91.5109C92.6859 78.2593 93.8208 78.7012 94.7037 79.5026C95.5865 80.3039 96.1571 81.4099 96.3088 82.6141L101.063 120.345C101.152 121.05 101.094 121.767 100.894 122.447C100.693 123.127 100.354 123.756 99.9004 124.29C99.4463 124.825 98.8872 125.253 98.2603 125.546C97.6334 125.839 96.9531 125.991 96.265 125.991Z" fill="white"/>
<path d="M96.265 126.372H24.3936C23.1301 126.369 21.9105 125.892 20.961 125.031C20.0116 124.169 19.3967 122.981 19.2306 121.686L14.4765 83.9555C14.3808 83.1966 14.4429 82.4253 14.6586 81.6932C14.8743 80.961 15.2387 80.2849 15.7273 79.7098C16.216 79.1348 16.8177 78.6741 17.4923 78.3585C18.167 78.0429 18.899 77.8797 19.6395 77.8797H91.5109C92.7747 77.8826 93.9944 78.3592 94.944 79.2211C95.8935 80.0829 96.5083 81.2714 96.6743 82.5662L101.428 120.297C101.524 121.055 101.462 121.827 101.246 122.559C101.03 123.291 100.666 123.967 100.177 124.542C99.6885 125.117 99.0868 125.578 98.4121 125.893C97.7375 126.209 97.0055 126.372 96.265 126.372V126.372ZM19.6395 78.6398C19.0037 78.6398 18.3752 78.78 17.796 79.051C17.2168 79.322 16.7002 79.7175 16.2806 80.2113C15.8611 80.705 15.5483 81.2856 15.3631 81.9142C15.1779 82.5428 15.1247 83.205 15.2068 83.8566L19.9605 121.587C20.1031 122.699 20.631 123.719 21.4462 124.459C22.2615 125.199 23.3087 125.608 24.3936 125.611H96.265C96.9009 125.611 97.5295 125.471 98.1089 125.199C98.6882 124.928 99.2049 124.533 99.6245 124.039C100.044 123.545 100.357 122.964 100.542 122.336C100.727 121.707 100.78 121.044 100.698 120.393L95.944 82.6624C95.8013 81.551 95.2734 80.5307 94.4582 79.791C93.643 79.0512 92.5958 78.6422 91.5109 78.6398H19.6395Z" fill="#292A2E"/>
<path d="M100.329 125.991H28.4578C27.2828 125.991 26.1478 125.549 25.2649 124.748C24.382 123.947 23.8114 122.841 23.6596 121.636L18.9055 83.9056C18.8167 83.2004 18.8745 82.4837 19.075 81.8033C19.2755 81.123 19.6141 80.4946 20.0682 79.9603C20.5223 79.4259 21.0815 78.9978 21.7084 78.7045C22.3353 78.4112 23.0156 78.2594 23.7037 78.2593H95.5751C96.7502 78.2593 97.8851 78.7012 98.768 79.5026C99.651 80.3039 100.222 81.4099 100.373 82.6141L105.127 120.345C105.216 121.05 105.158 121.767 104.958 122.447C104.757 123.128 104.419 123.756 103.965 124.29C103.511 124.825 102.951 125.253 102.325 125.546C101.698 125.839 101.017 125.991 100.329 125.991Z" fill="white"/>
<path d="M100.329 126.372H28.4579C27.1943 126.369 25.9747 125.892 25.0252 125.031C24.0757 124.169 23.4609 122.981 23.2948 121.686L18.5408 83.9555C18.4451 83.1966 18.5072 82.4253 18.7229 81.6932C18.9386 80.961 19.3029 80.2849 19.7916 79.7098C20.2802 79.1348 20.882 78.6741 21.5566 78.3585C22.2312 78.0429 22.9633 77.8796 23.7038 77.8797H95.5752C96.8389 77.8826 98.0587 78.3592 99.0082 79.221C99.9577 80.0829 100.572 81.2714 100.738 82.5662L105.492 120.297C105.588 121.055 105.526 121.827 105.31 122.559C105.094 123.291 104.73 123.967 104.241 124.542C103.753 125.117 103.151 125.578 102.476 125.894C101.802 126.209 101.07 126.372 100.329 126.372V126.372ZM23.7038 78.6398C23.068 78.6398 22.4395 78.78 21.8602 79.051C21.281 79.3219 20.7644 79.7175 20.3448 80.2113C19.9252 80.705 19.6124 81.2855 19.4272 81.9141C19.242 82.5428 19.1886 83.205 19.2707 83.8566L24.0248 121.587C24.1673 122.699 24.6951 123.719 25.5104 124.459C26.3256 125.199 27.3729 125.608 28.4579 125.611H100.329C100.965 125.611 101.594 125.471 102.173 125.2C102.753 124.929 103.269 124.533 103.689 124.039C104.109 123.545 104.421 122.964 104.607 122.336C104.792 121.707 104.845 121.045 104.763 120.393L100.009 82.6624C99.8662 81.5508 99.3383 80.5303 98.5231 79.7903C97.7079 79.0504 96.6606 78.6412 95.5756 78.6386L23.7038 78.6398Z" fill="#292A2E"/>
<path d="M201.692 273.791C201.692 273.791 203.666 284.364 213.245 284.953C222.824 285.542 220.747 293.429 220.747 293.429H184.141V274.528L201.692 273.791Z" fill="black"/>
<path d="M132.051 267.115C132.051 267.115 129.306 277.503 137.65 282.402C145.994 287.3 140.762 293.429 140.762 293.429L107.915 276.728L115.988 259.768L132.051 267.115Z" fill="black"/>
<path d="M102.576 20.7399C102.576 20.7399 107.352 17.0144 108.535 8.43878C109.451 1.7988 103.525 6.10029 103.525 6.10029C103.525 6.10029 104.139 1.31299 100.764 1.78777C97.3884 2.26254 95.5001 7.29255 95.5001 7.29255" fill="#0C0C0C"/>
<path d="M83.3198 2.34813C83.3198 2.34813 66.5729 4.20386 72.6267 27.6564L74.1087 27.7588L77.1169 27.9672" fill="#0C0C0C"/>
<path d="M99.7708 52.1491C99.6972 52.1392 98.88 66.1488 83.1302 64.9284C72.227 64.0846 68.3394 52.1293 68.0895 52.1293C69.2652 51.871 70.7177 51.4792 71.2953 51.3445C72.5536 51.0426 73.6931 50.352 74.5622 49.3644C75.4314 48.3769 75.989 47.1392 76.1609 45.8161C76.4801 43.8303 75.94 33.6698 76.1053 31.6604L92.842 35.5214C92.6082 39.7651 90.9712 49.6033 96.7071 51.3445C97.663 51.6325 98.6911 51.8973 99.7708 52.1491Z" fill="#E98862"/>
<path opacity="0.52" d="M93.0772 47.3238C92.8151 46.4507 92.6462 45.5505 92.5736 44.6395C92.3899 42.5602 92.427 40.4664 92.6841 38.3955C89.2823 37.921 86.0776 36.4698 83.434 34.207C83.1233 35.3932 81.4142 40.5761 81.8879 41.7037C82.7806 43.8345 86.9832 47.3238 93.0772 47.3238Z" fill="#0C0C0C"/>
<path d="M89.6228 44.5508C83.0198 43.9387 75.1169 39.6273 75.0032 30.3643L74.9001 22.0067C74.7864 12.7437 79.4013 5.17281 87.8405 5.06211C96.2793 4.95102 102.68 12.3773 102.793 21.64L102.839 25.34C102.833 26.6108 102.743 27.8797 102.571 29.1378C102.138 32.4666 101.466 37.5274 99.2808 40.9512C97.2165 44.183 93.841 44.9419 89.6228 44.5508Z" fill="#E98862"/>
<path d="M92.6862 36.084C94.0488 36.1479 95.4068 35.8798 96.6507 35.3015C96.6764 35.2902 96.6998 35.2737 96.7193 35.253C96.7389 35.2324 96.7543 35.208 96.7647 35.1812C96.7752 35.1543 96.7804 35.1257 96.7801 35.0968C96.7798 35.0679 96.774 35.0393 96.763 35.0128C96.752 34.9862 96.7361 34.9621 96.7161 34.9419C96.6961 34.9217 96.6725 34.9057 96.6466 34.8949C96.6206 34.8842 96.5929 34.8788 96.5649 34.8791C96.537 34.8794 96.5093 34.8854 96.4836 34.8967C93.8038 36.078 91.3703 35.9049 89.4466 34.3965C89.4077 34.3648 89.3673 34.3352 89.3254 34.3078C89.2771 34.2847 89.2221 34.2811 89.1713 34.2977C89.1205 34.3144 89.0776 34.3501 89.0511 34.3979C89.0245 34.4456 89.0162 34.5019 89.0278 34.5557C89.0394 34.6094 89.0701 34.6567 89.1138 34.6883C89.1292 34.6981 89.1539 34.7183 89.1874 34.7461C90.1988 35.5422 91.4171 36.008 92.6862 36.084Z" fill="#0C0C0C"/>
<path d="M92.6226 38.1707C92.8688 38.1866 93.1158 38.1804 93.361 38.1524C93.4171 38.1463 93.4686 38.1173 93.5041 38.0719C93.5396 38.0266 93.5562 37.9685 93.5502 37.9105C93.5443 37.8525 93.5162 37.7993 93.4723 37.7626C93.4284 37.7259 93.3722 37.7088 93.3161 37.7149C91.8411 37.877 91.1373 37.1785 91.1075 37.1485C91.0672 37.1091 91.0136 37.0875 90.9581 37.0882C90.9026 37.089 90.8496 37.1121 90.8104 37.1526C90.7711 37.1932 90.7487 37.2479 90.7479 37.3052C90.7471 37.3626 90.7679 37.418 90.806 37.4597C91.314 37.9062 91.9558 38.1574 92.6226 38.1707Z" fill="#0C0C0C"/>
<path d="M100.006 27.1212C100.58 27.1212 101.046 26.6402 101.046 26.0468C101.046 25.4535 100.58 24.9725 100.006 24.9725C99.4323 24.9725 98.9669 25.4535 98.9669 26.0468C98.9669 26.6402 99.4323 27.1212 100.006 27.1212Z" fill="#0C0C0C"/>
<path d="M89.8511 26.4627C90.4252 26.4627 90.8906 25.9817 90.8906 25.3883C90.8906 24.795 90.4252 24.314 89.8511 24.314C89.277 24.314 88.8116 24.795 88.8116 25.3883C88.8116 25.9817 89.277 26.4627 89.8511 26.4627Z" fill="#0C0C0C"/>
<path d="M75.562 33.1795C72.9974 33.2133 70.8838 30.405 70.8503 27.7546C70.8168 25.1041 72.8785 23.6155 75.4431 23.5817L76.7863 25.34L77.7662 33.1506L75.562 33.1795Z" fill="#E98862"/>
<path d="M78.1119 28.9206C78.1119 28.9206 78.9781 15.8137 82.8237 15.0046C85.3849 14.4655 91.596 18.2199 97.3487 17.0859C99.8658 16.5913 102.255 17.2339 102.498 18.4623C102.594 18.9488 104.162 11.957 100.221 6.65229C97.0829 2.42955 86.8136 1.23501 82.1416 2.61976C69.2053 6.45523 74.9138 24.1588 74.9138 24.1588L75.4906 28.6771L78.1119 28.9206Z" fill="#0C0C0C"/>
<path d="M94.2349 32.9908C94.2404 32.9912 94.246 32.9912 94.2515 32.9908C95.0779 32.982 96.4631 32.8725 96.4575 32.2334C96.452 31.7038 94.9943 26.0039 94.8276 25.3556C94.8092 25.3051 94.7733 25.2634 94.7269 25.2387C94.6804 25.214 94.6268 25.208 94.5763 25.2219C94.5258 25.2358 94.4822 25.2686 94.4538 25.3139C94.4254 25.3592 94.4143 25.4138 94.4227 25.4671C95.0702 27.9916 96.0346 31.878 96.0386 32.2387C95.9588 32.3909 95.1051 32.5472 94.2493 32.5563C94.1953 32.5575 94.1438 32.5801 94.1055 32.6194C94.0672 32.6587 94.0449 32.7117 94.0433 32.7674C94.0417 32.8232 94.0609 32.8775 94.0969 32.919C94.1329 32.9606 94.183 32.9863 94.2368 32.9908H94.2349Z" fill="#0C0C0C"/>
<path d="M97.0561 20.2217C97.9246 19.9747 98.8416 19.9747 99.7101 20.2217C100.137 20.3402 100.544 20.5244 100.917 20.768C101.287 21.0065 101.626 21.2924 101.926 21.6187C101.983 21.6762 102.017 21.7548 102.019 21.8375C102.021 21.9202 101.992 22.0005 101.937 22.0612C101.883 22.1219 101.808 22.1581 101.728 22.1621C101.648 22.1662 101.569 22.1377 101.509 22.0828L101.491 22.0661C101.213 21.8003 100.903 21.5716 100.57 21.3855C100.244 21.2004 99.8914 21.0677 99.5261 20.9917C98.8069 20.8355 98.0606 20.8785 97.3627 21.1165L97.3333 21.1272C97.2181 21.1692 97.0915 21.1623 96.9813 21.1079C96.8711 21.0535 96.7863 20.9561 96.7456 20.8371C96.7049 20.7181 96.7116 20.5872 96.7642 20.4733C96.8168 20.3594 96.9111 20.2718 97.0263 20.2297L97.0561 20.2217Z" fill="#0C0C0C"/>
<path d="M90.9057 20.7608C90.2449 20.4289 89.5109 20.2833 88.7781 20.3389C88.4062 20.3639 88.04 20.447 87.6922 20.5854C87.3386 20.7242 87.0032 20.9082 86.6939 21.1333L86.674 21.1469C86.6076 21.1909 86.5274 21.2068 86.45 21.1912C86.3725 21.1756 86.3039 21.1298 86.2583 21.0633C86.2127 20.9968 86.1937 20.9147 86.2052 20.8341C86.2166 20.7534 86.2577 20.6805 86.3199 20.6303C86.6595 20.3483 87.0322 20.1116 87.429 19.9258C87.8309 19.7361 88.2579 19.6097 88.696 19.5507C89.1348 19.487 89.5799 19.4858 90.019 19.5472C90.4696 19.6052 90.91 19.729 91.3269 19.9151C91.4391 19.9656 91.5274 20.06 91.5723 20.1778C91.6172 20.2955 91.6149 20.4268 91.5661 20.5428C91.5173 20.6589 91.4259 20.7501 91.312 20.7965C91.1981 20.8428 91.071 20.8406 90.9588 20.7901C90.9503 20.7863 90.9415 20.7821 90.9334 20.7776L90.9057 20.7608Z" fill="#0C0C0C"/>
<path d="M95.8202 11.1988C97.7184 10.7889 98.7841 8.11582 98.2003 5.22831C97.6166 2.34079 95.6045 0.332275 93.7062 0.742157C91.808 1.15204 90.7423 3.82511 91.3261 6.71262C91.9098 9.60013 93.9219 11.6087 95.8202 11.1988Z" fill="#0C0C0C"/>
<path d="M111.707 264.181L139.407 173.871H89.1974C79.1113 173.871 74.9068 165.032 74.9068 154.609C74.9068 144.186 84.8221 135.049 94.9074 135.049H162.672C168.823 135.049 175.721 138.937 179.097 144.251C182.473 149.566 181.56 157.801 179.114 163.634L134.758 274.973" fill="#262626"/>
<path opacity="0.8" d="M111.707 264.181L139.407 173.871H89.1974C79.1113 173.871 74.9068 165.032 74.9068 154.609C74.9068 144.186 84.8221 135.049 94.9074 135.049H162.672C168.823 135.049 175.721 138.937 179.097 144.251C182.473 149.566 181.56 157.801 179.114 163.634L134.758 274.973" fill="#0A0A0A"/>
<path d="M182.036 283.61L135.72 173.871L74.906 173.867C60.6563 172.712 54.1302 164.641 54.3378 154.221C54.5425 143.932 59.5833 133.77 69.4938 133.77H151.46C158.793 133.926 164.562 142.3 167.282 149.339L205.786 276.891" fill="#262626"/>
<path d="M50.19 133.896C50.19 133.896 47.4892 152.098 51.7703 162.217C57.1148 174.851 77.15 173.867 77.15 173.867L76.021 133.77L50.19 133.896Z" fill="#262626"/>
<path d="M169.025 133.538L126.067 124.338C124.277 123.955 122.61 123.111 121.219 121.885C119.828 120.659 118.759 119.09 118.11 117.324L101.214 71.3101C100.7 69.9291 100.454 68.4567 100.492 66.9774C100.53 65.4982 100.85 64.0412 101.434 62.6902C102.018 61.3392 102.855 60.1208 103.896 59.105C104.938 58.0892 106.163 57.296 107.501 56.7709C108.84 56.2459 110.266 55.9994 111.697 56.0455C113.128 56.0917 114.536 56.4296 115.841 57.0399C117.145 57.6502 118.32 58.5208 119.298 59.6017C120.276 60.6826 121.038 61.9526 121.539 63.3386L136.319 103.588L173.437 111.536C173.437 111.536 169.77 133.697 169.025 133.538Z" fill="#27035F"/>
<path d="M119.34 82.9968C118.844 89.0201 115.327 126.598 114.849 134.017H50.2184C49.847 127.325 48.1794 98.0663 46.7714 84.9796C45.4271 72.4936 43.5428 66.8115 45.091 62.9312C47.8217 56.0877 56.5133 53.0313 62.3993 52.2081C65.9932 51.7051 71.3988 51.3445 71.3988 51.3445C71.3988 51.3445 71.8567 60.9134 82.7703 61.446C97.6266 62.1688 96.6346 51.3445 96.7082 51.3445C99.1149 51.3445 112.216 53.1534 115.491 55.3599C120.119 58.4767 121.486 62.7238 121.54 66.6263C121.602 71.1191 119.902 76.1639 119.34 82.9968Z" fill="#482291"/>
<path d="M116.8 113.7H116.784C116.76 113.698 116.737 113.691 116.715 113.679C116.694 113.668 116.675 113.652 116.659 113.633C116.643 113.614 116.632 113.592 116.624 113.568C116.617 113.544 116.614 113.519 116.616 113.495L118.294 92.6646C118.295 92.6395 118.302 92.6149 118.312 92.5924C118.323 92.5699 118.338 92.5499 118.357 92.5336C118.376 92.5173 118.397 92.5052 118.42 92.4978C118.444 92.4904 118.468 92.488 118.492 92.4907C118.516 92.4928 118.54 92.4997 118.561 92.5112C118.583 92.5226 118.602 92.5383 118.618 92.5574C118.633 92.5765 118.645 92.5986 118.652 92.6224C118.66 92.6462 118.663 92.6713 118.661 92.6962L116.983 113.526C116.979 113.573 116.958 113.618 116.924 113.65C116.89 113.682 116.846 113.7 116.8 113.7Z" fill="#0C0C0C"/>
<path d="M127.19 129.886L141.371 84.8343C141.62 84.0426 142.106 83.3528 142.757 82.8635C143.409 82.3743 144.194 82.1108 144.999 82.1108H202.774C203.377 82.1107 203.97 82.2581 204.507 82.5407C205.043 82.8233 205.508 83.2331 205.862 83.7368C206.216 84.2404 206.449 84.8234 206.543 85.4382C206.637 86.053 206.589 86.6821 206.403 87.2739L192.222 132.325C191.973 133.117 191.487 133.807 190.836 134.296C190.184 134.785 189.399 135.049 188.593 135.049H130.819C130.216 135.049 129.623 134.901 129.086 134.619C128.549 134.336 128.085 133.926 127.731 133.423C127.377 132.919 127.144 132.336 127.05 131.721C126.956 131.107 127.004 130.477 127.19 129.886Z" fill="#292A2E"/>
<path opacity="0.2" d="M127.19 129.886L141.371 84.8343C141.62 84.0426 142.106 83.3528 142.757 82.8635C143.409 82.3743 144.194 82.1108 144.999 82.1108H202.774C203.377 82.1107 203.97 82.2581 204.507 82.5407C205.043 82.8233 205.508 83.2331 205.862 83.7368C206.216 84.2404 206.449 84.8234 206.543 85.4382C206.637 86.053 206.589 86.6821 206.403 87.2739L192.222 132.325C191.973 133.117 191.487 133.807 190.836 134.296C190.184 134.785 189.399 135.049 188.593 135.049H130.819C130.216 135.049 129.623 134.901 129.086 134.619C128.549 134.336 128.085 133.926 127.731 133.423C127.377 132.919 127.144 132.336 127.05 131.721C126.956 131.107 127.004 130.477 127.19 129.886Z" fill="white"/>
<path d="M138.758 131.396H100.084C99.1201 131.396 98.3389 132.203 98.3389 133.199V133.246C98.3389 134.241 99.1201 135.049 100.084 135.049H138.758C139.722 135.049 140.503 134.241 140.503 133.246V133.199C140.503 132.203 139.722 131.396 138.758 131.396Z" fill="#292A2E"/>
<path opacity="0.2" d="M138.758 131.396H100.084C99.1201 131.396 98.3389 132.203 98.3389 133.199V133.246C98.3389 134.241 99.1201 135.049 100.084 135.049H138.758C139.722 135.049 140.503 134.241 140.503 133.246V133.199C140.503 132.203 139.722 131.396 138.758 131.396Z" fill="white"/>
<path d="M166.796 117.04C170.143 117.04 172.856 114.236 172.856 110.777C172.856 107.319 170.143 104.515 166.796 104.515C163.45 104.515 160.737 107.319 160.737 110.777C160.737 114.236 163.45 117.04 166.796 117.04Z" fill="white"/>
<path d="M119.925 74.5992H104.562V94.071H119.925V74.5992Z" fill="white"/>
<path d="M104.562 90.8366C103.318 90.8366 102.102 90.4553 101.067 89.7409C100.033 89.0265 99.2262 88.011 98.7501 86.8229C98.2739 85.6349 98.1493 84.3275 98.3921 83.0663C98.6348 81.8051 99.234 80.6465 100.114 79.7372C100.994 78.8279 102.115 78.2087 103.335 77.9578C104.555 77.7069 105.82 77.8357 106.97 78.3278C108.12 78.8199 109.102 79.6533 109.793 80.7225C110.485 81.7917 110.854 83.0488 110.854 84.3348C110.852 86.0586 110.188 87.7113 109.009 88.9302C107.83 90.1491 106.23 90.8347 104.562 90.8366ZM104.562 80.4963C103.828 80.4963 103.11 80.7214 102.499 81.1433C101.888 81.5651 101.412 82.1647 101.131 82.8662C100.85 83.5676 100.776 84.3395 100.919 85.0842C101.063 85.8289 101.416 86.5129 101.936 87.0498C102.456 87.5867 103.117 87.9522 103.838 88.1003C104.559 88.2484 105.305 88.1723 105.984 87.8817C106.663 87.5911 107.243 87.099 107.651 86.4676C108.059 85.8363 108.277 85.094 108.277 84.3348C108.276 83.317 107.884 82.3412 107.188 81.6215C106.492 80.9018 105.547 80.4972 104.562 80.4963Z" fill="white"/>
<path d="M105.448 87.2195C105.308 86.8434 105.045 86.5303 104.704 86.3349C104.363 86.1395 103.966 86.0744 103.583 86.1509C103.591 86.1327 103.594 86.1132 103.595 86.0935L104.11 85.8553C104.471 85.6967 104.768 85.414 104.95 85.0551C105.133 84.6962 105.19 84.2832 105.112 83.8859C105.058 83.6378 104.951 83.4052 104.799 83.205C104.648 83.0047 104.455 82.8417 104.235 82.7277C104.015 82.6136 103.773 82.5515 103.527 82.5457C103.281 82.5398 103.037 82.5905 102.812 82.694L101.597 83.2559C101.597 83.2509 101.597 83.246 101.594 83.241C101.59 83.2309 101.584 83.2215 101.577 83.2129C101.876 82.9796 102.09 82.6483 102.184 82.2731C102.278 81.8979 102.246 81.5009 102.094 81.1468C101.756 80.2029 100.56 80.1276 99.769 80.4924L96.5907 81.8175L97.55 80.812C97.8506 80.4842 98.0195 80.0506 98.0226 79.599C98.0257 79.1474 97.8629 78.7115 97.567 78.3792C97.4083 78.2132 97.2185 78.0825 97.0093 77.9948C96.8001 77.9072 96.5758 77.8645 96.3501 77.8694C96.1244 77.8743 95.9021 77.9267 95.6966 78.0234C95.4912 78.1201 95.3069 78.259 95.1551 78.4317L83.8543 91.1866L87.7194 95.0335C88.9195 96.2284 90.4377 97.0256 92.0791 97.323C93.7205 97.6203 95.4105 97.4043 96.9323 96.7025L103.82 93.511C104.181 93.3525 104.478 93.0698 104.661 92.7109C104.843 92.3519 104.9 91.9389 104.822 91.5416C104.744 91.1849 104.557 90.8635 104.29 90.624C104.023 90.3844 103.688 90.2394 103.336 90.2101C103.339 90.1903 103.34 90.17 103.336 90.1502C103.332 90.1304 103.324 90.1116 103.314 90.0949C103.303 90.0782 103.289 90.0638 103.272 90.0527C103.256 90.0416 103.238 90.0339 103.219 90.0301L104.491 89.4435C104.893 89.2673 105.216 88.9397 105.394 88.5268C105.572 88.1139 105.591 87.6467 105.448 87.2195Z" fill="#E98862"/>
<path opacity="0.2" d="M99.2989 84.3351C99.2625 84.3353 99.2271 84.3223 99.199 84.2983C99.1709 84.2744 99.1517 84.241 99.1449 84.204C99.1381 84.167 99.144 84.1287 99.1617 84.0958C99.1793 84.0628 99.2076 84.0373 99.2415 84.0236L101.391 83.1486C101.41 83.1408 101.431 83.137 101.451 83.1374C101.472 83.1377 101.492 83.1423 101.511 83.1507C101.529 83.1592 101.546 83.1714 101.561 83.1866C101.575 83.2018 101.586 83.2198 101.594 83.2395C101.601 83.2592 101.605 83.2803 101.605 83.3015C101.604 83.3226 101.6 83.3435 101.592 83.363C101.583 83.3824 101.572 83.4 101.557 83.4147C101.542 83.4294 101.525 83.441 101.506 83.4487L99.356 84.3237C99.3378 84.3312 99.3185 84.335 99.2989 84.3351Z" fill="#0C0C0C"/>
<path opacity="0.2" d="M100.499 87.4767C100.462 87.4766 100.427 87.4635 100.399 87.4397C100.372 87.4158 100.353 87.3827 100.346 87.346C100.339 87.3093 100.345 87.2713 100.362 87.2384C100.379 87.2056 100.407 87.1799 100.44 87.1659L103.381 85.9436C103.419 85.9298 103.46 85.9317 103.497 85.9489C103.533 85.966 103.562 85.9971 103.577 86.0356C103.592 86.0742 103.592 86.1172 103.577 86.1557C103.562 86.1943 103.534 86.2254 103.497 86.2426L100.557 87.4653C100.538 87.4728 100.519 87.4766 100.499 87.4767Z" fill="#0C0C0C"/>
<path opacity="0.2" d="M101.781 90.8876C101.744 90.8876 101.709 90.8744 101.681 90.8502C101.653 90.8259 101.634 90.7923 101.627 90.7551C101.621 90.7179 101.627 90.6796 101.645 90.6467C101.663 90.6138 101.692 90.5886 101.726 90.5753L103.128 90.0317C103.167 90.0165 103.21 90.0179 103.247 90.0356C103.285 90.0532 103.315 90.0856 103.329 90.1256C103.344 90.1657 103.343 90.2101 103.326 90.2491C103.309 90.2882 103.277 90.3186 103.238 90.3337L101.837 90.8774C101.819 90.8842 101.8 90.8877 101.781 90.8876Z" fill="#0C0C0C"/>
<path d="M108.717 62.2137C108.649 62.2138 108.583 62.1945 108.525 62.1579C108.467 62.1214 108.42 62.0691 108.389 62.0067C107.551 60.318 106.508 58.2158 106.626 56.012C106.719 54.2593 107.515 52.7022 108.282 51.1984C108.779 50.2894 109.202 49.3397 109.547 48.3589C109.968 47.0055 110.074 45.5685 109.857 44.1647C109.64 42.7609 109.104 41.4299 108.295 40.2802C108.265 40.2401 108.243 40.1942 108.23 40.1451C108.217 40.096 108.214 40.0448 108.221 39.9944C108.227 39.9441 108.244 39.8956 108.269 39.8519C108.294 39.8081 108.327 39.77 108.367 39.7398C108.406 39.7096 108.451 39.6879 108.499 39.676C108.547 39.6641 108.596 39.6622 108.645 39.6704C108.694 39.6786 108.74 39.6969 108.782 39.724C108.823 39.7511 108.859 39.7865 108.887 39.8282C109.766 41.0759 110.348 42.5205 110.584 44.0443C110.821 45.5681 110.706 47.1281 110.249 48.5974C109.892 49.6187 109.453 50.6076 108.937 51.5537C108.171 53.0522 107.448 54.4674 107.363 56.0542C107.257 58.0518 108.208 59.9688 109.047 61.6598C109.075 61.7177 109.089 61.7824 109.087 61.8475C109.085 61.9125 109.066 61.9759 109.033 62.0315C109 62.0871 108.954 62.133 108.899 62.1649C108.844 62.1968 108.782 62.2136 108.719 62.2137H108.717Z" fill="white"/>
<path d="M114.628 68.1514C114.546 68.1514 114.467 68.1233 114.402 68.0717C114.338 68.02 114.292 67.9477 114.271 67.866C114.251 67.7844 114.258 67.698 114.29 67.6206C114.322 67.5431 114.378 67.4789 114.45 67.4381C115.814 66.6605 115.967 64.4962 115.326 62.8532C115.008 62.098 114.636 61.3683 114.213 60.6703C113.648 59.7658 113.188 58.7953 112.844 57.779C112.492 56.54 112.47 55.2259 112.78 53.975C113.09 52.7241 113.72 51.5826 114.604 50.6704C114.674 50.6012 114.768 50.5634 114.865 50.5654C114.962 50.5673 115.054 50.6088 115.122 50.6807C115.19 50.7527 115.227 50.8494 115.226 50.9497C115.225 51.05 115.186 51.1458 115.117 51.2163C114.328 52.0298 113.766 53.0478 113.49 54.1632C113.214 55.2787 113.234 56.4504 113.547 57.5553C113.874 58.5141 114.31 59.4295 114.846 60.2823C115.289 61.0127 115.677 61.7769 116.008 62.5682C116.759 64.4921 116.592 67.0858 114.805 68.1038C114.751 68.1348 114.69 68.1512 114.628 68.1514Z" fill="white"/>
<path d="M96.8116 101.312L42.6082 124.496C40.6539 125.322 38.509 125.543 36.4354 125.13C34.3618 124.718 32.4494 123.69 30.9318 122.172C29.4143 120.655 28.3573 118.713 27.8901 116.585C27.4228 114.457 27.5655 112.234 28.3007 110.188L44.4671 64.5545C46.5572 58.7385 52.4451 55.3941 58.073 57.5546C60.7754 58.5919 62.9684 60.6962 64.1696 63.4046C65.3707 66.1129 65.4817 69.2035 64.478 71.9964L57.1042 93.5951L88.8716 80.9379" fill="#27035F"/>
<path d="M96.6795 101.519C96.6506 101.519 96.6225 101.51 96.5985 101.494C96.5746 101.477 96.5559 101.453 96.5448 101.426L88.6581 81.1871L56.9971 93.815C56.9709 93.8255 56.9423 93.8279 56.9148 93.8219C56.8873 93.8159 56.8621 93.8017 56.8422 93.7811C56.8224 93.7605 56.8088 93.7344 56.8031 93.706C56.7974 93.6776 56.7998 93.648 56.8101 93.621L61.7059 80.6347C61.7198 80.5977 61.7474 80.568 61.7826 80.5521C61.8178 80.5361 61.8576 80.5353 61.8934 80.5497C61.9292 80.5641 61.958 80.5926 61.9734 80.629C61.9888 80.6653 61.9896 80.7065 61.9757 80.7435L57.1991 93.4129L88.6872 80.8538C88.7227 80.8397 88.7622 80.8405 88.7971 80.8562C88.832 80.8719 88.8596 80.9011 88.8738 80.9375L96.8139 101.314C96.8277 101.351 96.827 101.392 96.812 101.428C96.7971 101.464 96.7689 101.493 96.7336 101.509C96.7164 101.516 96.698 101.519 96.6795 101.519Z" fill="#0C0C0C"/>
<path d="M47.0534 97.8335C47.0195 97.8338 46.9866 97.8217 46.9603 97.7995C46.9341 97.7773 46.9163 97.7462 46.91 97.7118C46.9037 97.6774 46.9093 97.6417 46.9258 97.6111C46.9423 97.5805 46.9687 97.5569 47.0004 97.5443L56.9168 93.5118C56.9346 93.5043 56.9536 93.5004 56.9728 93.5005C56.9921 93.5007 57.0111 93.5047 57.0288 93.5125C57.0465 93.5203 57.0625 93.5316 57.0759 93.5459C57.0893 93.5601 57.0998 93.577 57.1069 93.5954C57.1139 93.6139 57.1174 93.6337 57.117 93.6535C57.1166 93.6734 57.1123 93.693 57.1046 93.7112C57.0968 93.7293 57.0856 93.7457 57.0716 93.7594C57.0576 93.773 57.0412 93.7836 57.0232 93.7907L47.1064 97.8232C47.0895 97.83 47.0715 97.8334 47.0534 97.8335Z" fill="#0C0C0C"/>
<path d="M49.3629 121.789C49.3293 121.789 49.2967 121.777 49.2706 121.755C49.2446 121.733 49.2268 121.702 49.2203 121.668C49.2138 121.634 49.2189 121.599 49.2348 121.568C49.2508 121.538 49.2765 121.514 49.3077 121.501L96.6257 101.231C96.6433 101.224 96.6621 101.22 96.6811 101.22C96.7001 101.22 96.7189 101.224 96.7365 101.232C96.7541 101.239 96.77 101.25 96.7834 101.264C96.7968 101.278 96.8075 101.294 96.8147 101.313C96.822 101.331 96.8257 101.35 96.8257 101.37C96.8257 101.39 96.8219 101.409 96.8146 101.427C96.8073 101.445 96.7966 101.462 96.7832 101.476C96.7697 101.49 96.7537 101.501 96.7362 101.508L49.4181 121.777C49.4006 121.785 49.3818 121.789 49.3629 121.789Z" fill="#0C0C0C"/>
<path d="M289.592 243.777C289.495 243.777 289.401 243.737 289.332 243.666C288.813 243.13 287.968 233.296 285.691 204.016C284.759 192.036 283.879 180.72 283.237 173.843C283.191 173.352 283.007 173.294 282.946 173.276C282.067 173.001 279.393 175.18 277.9 177.088C277.839 177.167 277.75 177.217 277.653 177.227C277.556 177.238 277.459 177.209 277.383 177.145C277.307 177.082 277.258 176.99 277.248 176.889C277.238 176.789 277.266 176.689 277.328 176.61C278.315 175.349 281.532 172.041 283.158 172.547C283.486 172.649 283.894 172.943 283.97 173.769C284.612 180.652 285.493 191.972 286.425 203.955C287.808 221.748 289.376 241.905 289.891 243.175C289.931 243.231 289.954 243.298 289.959 243.368C289.964 243.438 289.951 243.508 289.92 243.57C289.889 243.633 289.842 243.685 289.784 243.721C289.726 243.758 289.66 243.777 289.592 243.777Z" fill="#494949"/>
<path d="M282.291 186.462C288.399 181.402 290.424 173.525 286.813 168.87C283.202 164.214 275.323 164.543 269.215 169.603C263.107 174.663 261.082 182.539 264.693 187.194C268.304 191.85 276.183 191.522 282.291 186.462Z" fill="#1F41BB"/>
<path d="M282.291 186.462C288.399 181.402 290.424 173.525 286.813 168.87C283.202 164.214 275.323 164.543 269.215 169.603C263.107 174.663 261.082 182.539 264.693 187.194C268.304 191.85 276.183 191.522 282.291 186.462Z" fill="#AC2777"/>
<path d="M266.405 188.379C266.37 188.379 266.336 188.369 266.307 188.349C266.277 188.33 266.254 188.302 266.239 188.269C266.224 188.237 266.218 188.2 266.223 188.164C266.227 188.129 266.242 188.095 266.264 188.067L283.672 166.372C283.687 166.352 283.706 166.336 283.728 166.323C283.749 166.311 283.773 166.304 283.797 166.301C283.821 166.299 283.846 166.301 283.869 166.309C283.893 166.316 283.914 166.328 283.933 166.344C283.952 166.36 283.968 166.38 283.979 166.403C283.99 166.425 283.997 166.45 283.999 166.475C284.001 166.5 283.998 166.525 283.991 166.549C283.983 166.573 283.971 166.596 283.955 166.615L266.547 188.31C266.53 188.332 266.508 188.349 266.484 188.361C266.459 188.373 266.432 188.379 266.405 188.379Z" fill="white"/>
<path d="M293.389 239.126C293.33 239.126 293.273 239.112 293.22 239.084C293.168 239.056 293.123 239.016 293.089 238.966C293.055 238.917 293.033 238.859 293.025 238.799C293.016 238.739 293.022 238.678 293.041 238.62L299.58 219.186C299.773 218.615 300.101 218.102 300.535 217.696C300.968 217.29 301.493 217.003 302.062 216.861C302.631 216.72 303.225 216.727 303.79 216.884C304.355 217.041 304.873 217.342 305.297 217.76L308.754 221.173C308.824 221.243 308.865 221.338 308.867 221.439C308.869 221.54 308.833 221.638 308.765 221.711C308.698 221.784 308.605 221.826 308.508 221.828C308.41 221.831 308.315 221.793 308.245 221.723L304.788 218.31C304.454 217.981 304.045 217.743 303.599 217.619C303.153 217.496 302.684 217.489 302.235 217.601C301.786 217.713 301.371 217.94 301.029 218.26C300.687 218.581 300.428 218.985 300.276 219.436L293.737 238.87C293.712 238.945 293.665 239.01 293.602 239.056C293.54 239.101 293.466 239.126 293.389 239.126Z" fill="#494949"/>
<path d="M318.412 231.933C322.939 228.23 322.67 220.086 317.812 213.742C312.953 207.398 305.345 205.258 300.818 208.961C296.291 212.664 296.56 220.808 301.419 227.152C306.277 233.496 313.886 235.636 318.412 231.933Z" fill="#1F41BB"/>
<path d="M286.622 242.538C286.539 242.538 286.459 242.509 286.394 242.456C286.329 242.403 286.283 242.329 286.264 242.246L275.291 194.828C275.216 194.504 275.056 194.209 274.829 193.973C274.602 193.738 274.316 193.572 274.004 193.493C273.691 193.414 273.364 193.426 273.058 193.528C272.751 193.629 272.478 193.815 272.267 194.067L268.885 198.106C268.853 198.144 268.815 198.175 268.771 198.198C268.728 198.22 268.681 198.233 268.633 198.237C268.585 198.241 268.536 198.234 268.49 198.219C268.444 198.203 268.402 198.178 268.365 198.145C268.329 198.113 268.299 198.073 268.277 198.028C268.256 197.983 268.243 197.935 268.239 197.885C268.236 197.835 268.242 197.785 268.257 197.738C268.272 197.69 268.296 197.646 268.328 197.608L271.711 193.569C272.01 193.212 272.399 192.947 272.834 192.804C273.269 192.661 273.734 192.644 274.178 192.756C274.622 192.868 275.027 193.104 275.349 193.439C275.672 193.773 275.899 194.193 276.005 194.652L286.978 242.07C287.001 242.168 286.985 242.272 286.934 242.358C286.883 242.444 286.801 242.505 286.706 242.529C286.678 242.535 286.65 242.538 286.622 242.538Z" fill="#494949"/>
<path d="M282.574 208.64C283.908 200.668 280.378 193.381 274.689 192.364C269 191.348 263.307 196.986 261.973 204.958C260.639 212.931 264.17 220.218 269.858 221.234C275.547 222.251 281.24 216.612 282.574 208.64Z" fill="#1F41BB"/>
<path d="M289.593 243.777C289.578 243.777 289.562 243.776 289.547 243.774C289.45 243.762 289.362 243.71 289.302 243.631C289.242 243.551 289.215 243.45 289.227 243.35L296.234 184.552C296.31 183.911 296.564 183.307 296.965 182.812C297.366 182.316 297.896 181.951 298.493 181.76C299.09 181.569 299.727 181.561 300.329 181.735C300.93 181.91 301.47 182.261 301.883 182.745L309.892 192.12C309.957 192.195 309.99 192.294 309.984 192.395C309.978 192.496 309.933 192.59 309.86 192.657C309.787 192.724 309.691 192.758 309.593 192.751C309.496 192.745 309.405 192.699 309.34 192.623L301.331 183.248C301.011 182.874 300.594 182.603 300.129 182.468C299.664 182.333 299.171 182.34 298.71 182.488C298.249 182.636 297.839 182.918 297.529 183.301C297.219 183.684 297.024 184.152 296.965 184.647L289.956 243.443C289.945 243.535 289.902 243.619 289.836 243.681C289.769 243.742 289.682 243.777 289.593 243.777Z" fill="#494949"/>
<path d="M318.105 197.329C320.899 192.108 317.612 184.701 310.761 180.785C303.911 176.869 296.092 177.927 293.298 183.148C290.504 188.369 293.791 195.776 300.642 199.692C307.492 203.608 315.311 202.55 318.105 197.329Z" fill="#1F41BB"/>
<path d="M318.412 231.933C322.939 228.23 322.67 220.086 317.812 213.742C312.953 207.398 305.345 205.258 300.818 208.961C296.291 212.664 296.56 220.808 301.419 227.152C306.277 233.496 313.886 235.636 318.412 231.933Z" fill="#C968CF"/>
<path d="M282.574 208.64C283.908 200.668 280.378 193.381 274.689 192.364C269 191.348 263.307 196.986 261.973 204.958C260.639 212.931 264.17 220.218 269.858 221.234C275.547 222.251 281.24 216.612 282.574 208.64Z" fill="#ED9E76"/>
<path d="M318.105 197.329C320.899 192.108 317.612 184.701 310.761 180.785C303.911 176.869 296.092 177.927 293.298 183.148C290.504 188.369 293.791 195.776 300.642 199.692C307.492 203.608 315.311 202.55 318.105 197.329Z" fill="#ED9E76"/>
<path d="M298.555 293.667H280.63L277.659 234.395H301.525L298.555 293.667Z" fill="#292A2E"/>
<path opacity="0.3" d="M298.555 293.667H280.63L277.659 234.395H301.525L298.555 293.667Z" fill="white"/>
<path d="M318.413 232.121C318.385 232.121 318.357 232.115 318.332 232.102C318.307 232.09 318.285 232.072 318.268 232.049L300.673 209.076C300.642 209.037 300.628 208.987 300.634 208.936C300.64 208.886 300.664 208.841 300.703 208.809C300.741 208.778 300.79 208.764 300.838 208.769C300.887 208.775 300.931 208.801 300.961 208.84L318.557 231.813C318.578 231.841 318.592 231.874 318.595 231.91C318.599 231.945 318.593 231.981 318.578 232.014C318.563 232.046 318.54 232.073 318.51 232.092C318.481 232.111 318.447 232.121 318.413 232.121Z" fill="white"/>
<path d="M316.935 199.17C316.896 199.169 316.858 199.156 316.827 199.132L294.311 182.142C294.291 182.127 294.275 182.109 294.262 182.088C294.25 182.066 294.241 182.043 294.238 182.018C294.234 181.993 294.235 181.968 294.241 181.944C294.246 181.919 294.257 181.896 294.271 181.876C294.285 181.856 294.303 181.839 294.324 181.826C294.344 181.813 294.367 181.804 294.391 181.8C294.415 181.797 294.439 181.798 294.463 181.804C294.486 181.809 294.509 181.82 294.528 181.835L317.044 198.826C317.074 198.85 317.097 198.883 317.109 198.921C317.12 198.959 317.12 198.999 317.108 199.037C317.096 199.075 317.073 199.108 317.042 199.132C317.011 199.155 316.974 199.168 316.935 199.168V199.17Z" fill="white"/>
<path d="M268.943 220.987C268.927 220.987 268.911 220.984 268.896 220.98C268.849 220.967 268.809 220.935 268.784 220.892C268.76 220.848 268.753 220.796 268.766 220.747L275.933 192.994C275.939 192.969 275.95 192.946 275.964 192.926C275.979 192.906 275.997 192.889 276.018 192.876C276.04 192.863 276.063 192.855 276.087 192.851C276.111 192.848 276.136 192.85 276.159 192.856C276.183 192.863 276.205 192.874 276.224 192.889C276.244 192.905 276.26 192.924 276.272 192.946C276.284 192.968 276.292 192.992 276.295 193.017C276.298 193.042 276.296 193.068 276.289 193.092L269.122 220.845C269.111 220.886 269.088 220.922 269.056 220.947C269.023 220.973 268.984 220.987 268.943 220.987Z" fill="white"/>
</svg>
